<svg id="Layer_1" data-name="Layer 1" xmlns="http://www.w3.org/2000/svg" viewBox="0 0 504.42 240.32"><defs><style>.cls-1{fill:#f1f2f2;}</style></defs><path class="cls-1" d="M96,286.62q-.69,13.81-1.39,27.11c-.12,2.67-.25,6.57-.4,11.66-.17,5.64-.19,8.92-.08,9.94q.39,3.48,2.82,3.89c1.39.24,3.56-.46,6.5-2.19s4.41-3.2,4.44-4.28a9.43,9.43,0,0,0-1.44-3.62,7.08,7.08,0,0,1-1-3.57c.17-6.19,6.4-8.61,18.71-7.67,6.38.48,11.4,1.62,15.07,3.51a8.68,8.68,0,0,1,3.61,3.62,10.21,10.21,0,0,1,1.35,5.27c-.06,2.67-1.09,4.47-3.11,5.42a21,21,0,0,1-4.06.89c-2,.34-4.73,1.75-8,4.16s-5,4.14-5,5.34c0,.79,1.85,4.76,5.62,11.71s7.31,12.84,10.61,17.77a52.4,52.4,0,0,0,5,6.76,29.25,29.25,0,0,0,5.06,4.13c3.31,2.19,4.94,4.55,4.89,7.15a7.42,7.42,0,0,1-3.34,6.34c-2.16,1.47-5.09,2.13-8.79,1.92-7.58-.43-15.16-1.14-22.74-2.18a9,9,0,0,1-6.57-4.44q-5.59-9.11-11.15-18.66c-3-5-4.75-8.06-5.39-9.05s-1.21-1.53-1.68-1.63-1,.28-1.16,1.18a31.66,31.66,0,0,0-.44,5.29,14.49,14.49,0,0,0,.54,5.28,16.18,16.18,0,0,0,3.1,4.56,7.3,7.3,0,0,1,1.68,5.19c-.11,3.59-1.92,5.79-5.44,6.51s-9.24.05-17.2-2.5c-9.36-3-15.43-6-18.21-7.92a13.69,13.69,0,0,1-4-4.66,10.7,10.7,0,0,1-1.5-5.42c.08-1.85,1.12-3,3.14-3.6a9.57,9.57,0,0,0,3.32-1.3,4.91,4.91,0,0,0,1.22-2.39c1.34-6.51,2.25-17.07,2.75-31.8q.3-8.26.61-16.62c.2-5.69.07-9.4-.4-11.06a5.16,5.16,0,0,0-3.82-3.46c-3.76-1.17-5.59-3.14-5.48-5.88a6.09,6.09,0,0,1,2.69-4.7,29.69,29.69,0,0,1,8.33-3.83c12.26-4.14,21.27-6.88,27.08-6.64C94.89,282.23,96.12,283.73,96,286.62Z" transform="translate(-48.2 -282.14)"/><path class="cls-1" d="M200.28,319.12a33.84,33.84,0,0,1,22.18,7.5,39,39,0,0,1,10.9,13.84,40.94,40.94,0,0,1,4.14,18.37c-.11,11.2-4.84,21.11-14.23,30-9,8.43-19.2,13.29-30.67,14.25q-16.78,1.4-27-9.08-9.88-10.17-9.51-27.72c.27-13.07,4.58-24.16,12.89-32.94C177.71,324.05,188.11,319.29,200.28,319.12Zm-5.84,20.25a6,6,0,0,0-4.95,2.94,13.65,13.65,0,0,0-2,7.43,79,79,0,0,0,1.35,13.57,100.87,100.87,0,0,0,3.5,14.61c1.38,4.24,3.7,6.18,7,5.91,4.16-.37,6.27-3.47,6.36-9.4a85.13,85.13,0,0,0-1.36-15.19,73.89,73.89,0,0,0-3.59-14.18C199.28,341.32,197.17,339.4,194.44,339.37Z" transform="translate(-48.2 -282.14)"/><path class="cls-1" d="M327.14,336.65q.54,11.31,1.08,22.73a7.84,7.84,0,0,0,.89,3.71,25.36,25.36,0,0,0,4.34,4,3.35,3.35,0,0,1,1.07,2.74q0,4.32-5.51,7.15t-19.79,5.82q-9.69,2-13.69,1.23c-2.76-.57-4.14-2.16-4.13-4.75a4.34,4.34,0,0,1,.42-2.12,46.65,46.65,0,0,1,2.81-3.77c1.87-2.3,2.81-8.89,2.82-19.87q0-9.56-2.22-13.87c-1.21-2.32-3.43-3.3-6.68-2.91s-5.25,1.65-6.42,3.87-1.76,6.07-1.78,11.48q0,7.13-.05,14.15a19.47,19.47,0,0,0,.51,5.65,25.37,25.37,0,0,0,3.45,5.32,4.68,4.68,0,0,1,.76,2.72q0,4.11-5.77,7.23c-3.84,2.07-9.84,3.95-18,5.51-13,2.49-19.49.79-19.44-4.83a5.58,5.58,0,0,1,.62-2.78,16.73,16.73,0,0,1,2.86-3.07,7.52,7.52,0,0,0,2.34-3.58,63.29,63.29,0,0,0,1-9.11c.37-5.73.58-11.78.63-18.19,0-3.53-.19-5.84-.67-6.9s-1.87-2.28-4.18-3.68a5.56,5.56,0,0,1-2.95-5,7.17,7.17,0,0,1,2.48-5.43c1.63-1.48,5-3.44,10.05-5.84q6.67-3.12,12.87-5.3a37.66,37.66,0,0,1,8.47-2.3,4.24,4.24,0,0,1,3.5,1.42,5.34,5.34,0,0,1,1.41,3.74c0,.15,0,.77-.08,1.85,0,.4-.07.74-.07,1,0,2.36.91,3.44,2.77,3.27q1.67-.17,3.55-3.08c4-6.33,9.78-9.59,17.37-10a25.09,25.09,0,0,1,15,3.38,15.33,15.33,0,0,1,6.14,6.64C326.1,327.49,326.84,331.4,327.14,336.65Z" transform="translate(-48.2 -282.14)"/><path class="cls-1" d="M366,311a85.19,85.19,0,0,1,11.33.71,19.82,19.82,0,0,0,2.64.1,22.26,22.26,0,0,0,4.56-1.12,9.76,9.76,0,0,1,2.7-.56c2.12-.07,4.3.88,6.51,2.83a21.65,21.65,0,0,1,4.42,5.16,10.38,10.38,0,0,1,1.78,5,4.48,4.48,0,0,1-1.87,3.68,8.52,8.52,0,0,1-4.85,1.77,9.53,9.53,0,0,1-4.37-.61,41.58,41.58,0,0,1-6.23-3.67q-4.51-3.11-7.43-2.9a5.47,5.47,0,0,0-3.36,1.4,3.72,3.72,0,0,0-1.39,2.87c0,1.86,2.24,3.42,6.63,4.65q11.84,3.22,18.22,7.76a12.21,12.21,0,0,1,5.52,10.2c.11,5.41-2.65,10.33-8.29,14.85a37.19,37.19,0,0,1-18,7.64c-1.82.29-5.15.54-10,.82-4.54.31-7.1.54-7.66.64a14.65,14.65,0,0,0-2.1.57,29.11,29.11,0,0,1-2.95.8,7.15,7.15,0,0,1-5.2-.58c-1.94-1.24-3.73-3.43-5.39-6.56a18.47,18.47,0,0,1-2.51-8.37c0-3.94,1.64-6.17,5-6.7a5.51,5.51,0,0,1,3.61.59,72.36,72.36,0,0,1,6.95,5.09,19.72,19.72,0,0,0,4.8,3,7.82,7.82,0,0,0,4.07.38,6.87,6.87,0,0,0,3.7-1.68,4,4,0,0,0,1.37-3.09c0-1.85-1.85-3.26-5.45-4.25q-11.33-3.19-16.35-7.72a14.91,14.91,0,0,1-5.08-11.41,18.68,18.68,0,0,1,5-13C351.08,314,357.63,311.33,366,311Z" transform="translate(-48.2 -282.14)"/><path class="cls-1" d="M444,312.39q.47,12.76.91,27.56c.19,6.36,3,9.71,8.34,9.82a9.06,9.06,0,0,0,4-.82,5.33,5.33,0,0,0,2.65-2.17c1-1.74,1.35-5.72,1.15-11.6s-.6-9.56-1.19-11.59a3.42,3.42,0,0,0-1-1.86,11,11,0,0,0-2.69-1.41c-2.68-1.08-4-2.35-4.1-3.83q-.11-3,6.66-3.84A125.53,125.53,0,0,1,484,312c4.68.36,7.09,2.29,7.25,5.84,0,.37,0,1.11,0,2.25,0,1.6,0,3.57.05,5.94q.5,11.39,1,23.91c0,1.29,1.44,2.66,4.2,4.19,2.32,1.3,3.51,2.87,3.59,4.67.13,3.55-4.74,5.26-14.63,5.89a122.76,122.76,0,0,1-16.93.05,11.62,11.62,0,0,1-4.62-.94,3.37,3.37,0,0,1-1.52-2.64c-.31-2.46-1.24-3.71-2.78-3.78a3.63,3.63,0,0,0-1.53.26c-.46.2-1.86.94-4.21,2.26A31.83,31.83,0,0,1,438.81,364c-9,.21-15.38-1.62-19.17-5.8-3.22-3.48-4.92-9.58-5.11-17.79-.07-3.06-.11-5.61-.12-7.71,0-1.22-.05-2-.06-2.47-.07-3.07-.49-5.25-1.24-6.63a7.2,7.2,0,0,0-4-3.14,13.76,13.76,0,0,1-3.49-1.52,2.1,2.1,0,0,1-.77-1.67c-.06-2.59,2.57-4.36,7.87-5.27a146.58,146.58,0,0,1,27.14-2C442.58,310,444,310.82,444,312.39Z" transform="translate(-48.2 -282.14)"/><path class="cls-1" d="M542.39,331.15q.45,9.74.9,19.6c.4,8.73.79,13.92,1.16,15.47s1.57,3.1,3.62,4.67a19,19,0,0,1,3.55,3.27,5.12,5.12,0,0,1,1,2.88,3.22,3.22,0,0,1-1.47,3.1,6.08,6.08,0,0,1-4.28.61c-3.32-.4-9-2.16-17-4.69-9-2.84-15.4-4.92-19.1-6.94a14.28,14.28,0,0,1-4.24-3.35,6.43,6.43,0,0,1-1.75-3.76,2.18,2.18,0,0,1,.79-2,10.3,10.3,0,0,1,3.75-1c1.79-.27,2.84-1.84,3.13-4.7a143.55,143.55,0,0,0,.21-20.74c-.4-9-1-14.47-1.74-17a9.82,9.82,0,0,0-5.11-5.88,16.55,16.55,0,0,1-4.09-2.63,4,4,0,0,1-1.2-2.64c-.08-1.58.94-2.86,3.05-3.9s5.52-1.92,10.21-2.72c3.15-.55,7.23-1,12.27-1.52a98.19,98.19,0,0,1,11-.65c3.64.1,5.55,2.12,5.74,6.08.06,1.29,0,4.24-.28,8.81C542.25,318.62,542.2,325.14,542.39,331.15Z" transform="translate(-48.2 -282.14)"/><path class="cls-1" d="M133.35,432.18q-.89,32.11-1.77,58.23a19.77,19.77,0,0,0,.27,5.66,5.15,5.15,0,0,0,2.52,2.45,13,13,0,0,1,3.38,2.45,3.53,3.53,0,0,1,.8,2.48c-.09,2.83-4,4.95-11.74,6.31A99,99,0,0,1,106,511.15a5.32,5.32,0,0,1-3-.66,3.83,3.83,0,0,1-.79-2.59c-.16-1.93-1-3-2.46-3.06-.81-.06-2.09.42-3.86,1.45a28.09,28.09,0,0,1-16.44,3.62,29.21,29.21,0,0,1-19.66-9.79,42.91,42.91,0,0,1-8-12.7,42.41,42.41,0,0,1-3.59-18.21,29.28,29.28,0,0,1,6.32-17.64A23.17,23.17,0,0,1,69,443.24a32.91,32.91,0,0,1,14.66.54,41.85,41.85,0,0,1,14.59,7,4.85,4.85,0,0,0,1.68.88c1.51.28,2.34-1.49,2.47-5.39a6.34,6.34,0,0,0-1.11-4.1,13.11,13.11,0,0,0-4.34-3.23c-2.94-1.57-4.36-3.57-4.28-5.91.11-3.44,3.62-5.24,10.5-5.8,12.14-1,20.24-1.85,24.33-1.39S133.45,428.33,133.35,432.18Zm-39.5,28.58a6.88,6.88,0,0,0-7.47,3c-2.57,3.52-4,8.6-4.23,15.07q-.34,8.81,3,13.61a8.91,8.91,0,0,0,6.66,3.94,6.47,6.47,0,0,0,6.92-3.77c1.52-2.86,2.41-7.64,2.66-14.62.24-6.41-.43-11-2-13.46A8.46,8.46,0,0,0,93.85,460.76Z" transform="translate(-48.2 -282.14)"/><path class="cls-1" d="M188.13,451.17c8.63-.76,16.16.41,22.61,3.62a28,28,0,0,1,11.1,9.61,24.08,24.08,0,0,1,4.2,13.93c-.13,8.67-5,16.38-14.54,22.77-9.16,6.08-19.6,9.17-31.3,9.78-11.41.57-20.58-1.35-27.48-5.94-6.71-4.47-9.92-10.72-9.67-18.88.29-9.12,4.7-16.91,13.18-23.25C165.1,456.09,175.72,452.24,188.13,451.17Zm-6,15.13a7.25,7.25,0,0,0-5.05,2.34,8,8,0,0,0-2,5.37,38.59,38.59,0,0,0,1.37,9.54A50.41,50.41,0,0,0,180,493.67a6.71,6.71,0,0,0,7.1,4c4.24-.3,6.4-2.5,6.49-6.72a42.8,42.8,0,0,0-1.36-10.81,39.91,39.91,0,0,0-3.65-10.06A6.71,6.71,0,0,0,182.15,466.3Z" transform="translate(-48.2 -282.14)"/><path class="cls-1" d="M317.48,453q.52,12,1.06,24.09a8.79,8.79,0,0,0,.9,4,30.58,30.58,0,0,0,4.41,4.47,4,4,0,0,1,1.09,3c0,3.11-1.87,5.51-5.63,7.15s-10.5,3-20.19,4.05c-6.58.73-11.24.72-13.95,0s-4.21-2.27-4.21-4.64a3.62,3.62,0,0,1,.44-1.93c.29-.44,1.24-1.55,2.87-3.36,1.91-2.06,2.88-8.22,2.9-18.61,0-6-.73-10.37-2.24-13q-1.83-3.12-6.8-2.13-4.75.94-6.55,4.08c-1.19,2.09-1.81,5.56-1.83,10.37q0,6.33-.08,12.54a15.3,15.3,0,0,0,.51,5,24.55,24.55,0,0,0,3.51,4.82,3.92,3.92,0,0,1,.77,2.46c0,2.45-2,4.49-5.9,6.06s-10,2.77-18.33,3.6q-19.9,1.92-19.81-4.51a3.37,3.37,0,0,1,.63-2.12A15.48,15.48,0,0,1,234,496.1a6.05,6.05,0,0,0,2.39-2.79,39.83,39.83,0,0,0,1-7.2q.59-6.83.68-14.53c0-2.84-.2-4.69-.68-5.5s-1.91-1.68-4.26-2.59c-2-.81-3-2-3-3.68a6,6,0,0,1,2.54-4.58c1.66-1.36,5.08-3.31,10.25-5.94q6.83-3.45,13.13-6.26a54.06,54.06,0,0,1,8.65-3.29,4.06,4.06,0,0,1,3.57.72,3.78,3.78,0,0,1,1.43,3.14c0,.14,0,.69-.08,1.67a7.14,7.14,0,0,0-.08.94q0,3.17,2.82,2.58,1.69-.35,3.63-3.25a27.23,27.23,0,0,1,17.73-12.09c5.94-1.31,11-1,15.29,1.1a12.77,12.77,0,0,1,6.25,6.18C316.43,443.37,317.18,447.46,317.48,453Z" transform="translate(-48.2 -282.14)"/><path class="cls-1" d="M404,408.22a3.35,3.35,0,0,1,3.14,1.62,7.51,7.51,0,0,1,1.43,4.51,16.53,16.53,0,0,1-1.7,6.83,21.57,21.57,0,0,1-4.26,6.5c-1.07,1.1-1.6,1.94-1.59,2.53,0,.14.05.72.17,1.74a20.6,20.6,0,0,1,.25,2.76,23.34,23.34,0,0,1-5.47,15.63,40.6,40.6,0,0,1-13.1,10.14,56.55,56.55,0,0,1-17.75,5.41,36.81,36.81,0,0,1-4.64.36,24.27,24.27,0,0,0-2.85.2c-2.52.37-3.77,1.85-3.75,4.46a3.81,3.81,0,0,0,2.5,3.62,12.59,12.59,0,0,0,6.68.58,68.09,68.09,0,0,0,8.42-1.9,124.3,124.3,0,0,1,17.25-3.81q8.43-.91,13.11,1.74a14.74,14.74,0,0,1,6,6.21,20.07,20.07,0,0,1,2.33,9.29,30.4,30.4,0,0,1-5.07,16.66c-4.12,6.52-10.26,11.52-18.42,14.85a64.31,64.31,0,0,1-22.25,4.25c-10.64.35-19.28-1.17-25.91-4.23a19.41,19.41,0,0,1-7.35-5.77,12.36,12.36,0,0,1-2.76-7.59,10,10,0,0,1,1.52-5.32,10.23,10.23,0,0,1,3.88-3.8c1.43-.73,2.14-1.44,2.14-2.12,0-.53-.6-1.24-1.8-2.11-3.83-2.78-5.75-5.8-5.77-9.2a13.43,13.43,0,0,1,2.72-7.43,24.07,24.07,0,0,1,6.78-6.71c1.14-.75,1.71-1.42,1.7-2s-.72-1.55-2.15-2.64c-4.92-3.68-7.38-8.39-7.41-14.29a19.58,19.58,0,0,1,2.55-9.41,30.69,30.69,0,0,1,7.15-8.68,53.79,53.79,0,0,1,25.22-12.23,56.53,56.53,0,0,1,12.34-.77,60.22,60.22,0,0,0,8.86-.14c5.15-.78,10.24-3.54,15.27-8.18A5.72,5.72,0,0,1,404,408.22Zm-53.2,89.52c-1.2.12-1.79.9-1.78,2.36,0,3,1.57,5.24,4.64,6.89s7.06,2.35,11.94,2q7-.43,11-2.78c2.64-1.57,3.94-3.63,3.92-6.16a4.19,4.19,0,0,0-1.55-3.3,5,5,0,0,0-3.74-1.09,26.84,26.84,0,0,0-3.29.6,54.06,54.06,0,0,1-8.95,1.48,67.58,67.58,0,0,1-7,.25,29.73,29.73,0,0,1-4.09-.24A6.34,6.34,0,0,0,350.77,497.74Zm15-69.1a8.52,8.52,0,0,0-5.69,3.72,12.72,12.72,0,0,0-2.09,7.56q.06,7.71,2.45,12.07c1.6,2.89,3.68,4.17,6.24,3.78a8.35,8.35,0,0,0,5.95-3.89,14.67,14.67,0,0,0,2.12-8.32c-.06-5.21-.88-9.09-2.45-11.67A6.14,6.14,0,0,0,365.72,428.64Z" transform="translate(-48.2 -282.14)"/><path class="cls-1" d="M432.52,450.19a15.09,15.09,0,0,1,11.86,4.64c3.44,3.4,5.23,7.93,5.35,13.65a20,20,0,0,1-4.8,13.85,16.08,16.08,0,0,1-11.71,6,15.2,15.2,0,0,1-11.9-4.88A19,19,0,0,1,416,470a19.47,19.47,0,0,1,4.84-13.85A16.75,16.75,0,0,1,432.52,450.19Z" transform="translate(-48.2 -282.14)"/></svg>